<svg xmlns="http://www.w3.org/2000/svg" viewBox="0 0 410 404"><path fill="#41D1FF" d="M399.641 59.525L215.45 388.919c-5.674 10.117-20.484 10.095-26.128-.04L10.324 59.525c-6.18-11.021 3.089-24.304 15.624-21.98l174.233 31.351a13.534 13.534 0 0 0 4.786-.001l179.052-31.356c12.51-2.19 21.766 11.053 15.63 22.077Z"/><path fill="#BD34FE" d="M292.965.004 156.3 25.652c-4.967.934-8.89 4.586-10.025 9.322L96.423 233.893c-1.563 6.385 3.397 12.438 9.98 11.52l65.008-9.228c6.129-.87 10.918-5.957 11.242-12.13l5.31-101.07c.375-7.144 6.608-12.376 13.754-11.376l40.37 5.56c7.176.988 12.567 7.303 11.936 14.511l-9.996 114.28c-.746 8.544 6.731 15.63 15.199 14.101l40.696-7.236c6.202-1.102 11.065-6.05 11.962-12.318l27.724-192.11c1.28-8.865-6.52-16.365-15.352-14.65Z"/><path fill="#FFEA83" d="m215.878 103.604 76.87-12.88c8.599-1.441 15.238 7.316 11.22 15.075l-58.162 113.5c-3.133 6.114-11.605 7.168-16.423 2.064l-18.708-19.318c-4.87-5.025-13.3-3.321-15.62 3.125l-11.25 31.2c-2.85 7.909-13.854 8.463-17.537.87l-12.799-26.369c-3.425-7.052 1.25-15.346 8.94-16.409l23.004-3.206c6.148-.857 10.998-5.827 11.49-11.999l1.96-24.226c.637-7.883 8.377-13.197 15.715-11.327Z"/></svg>
